<svg data-v-423bf9ae="" xmlns="http://www.w3.org/2000/svg" viewBox="0 0 655 91" class="iconLeft"><!----><!----><!----><g data-v-423bf9ae="" id="e2067558-9b9b-41d6-b8cf-d3ec34de86f3" fill="#2e2e2e" transform="matrix(4.92206705261137,0,0,4.92206705261137,116.74955434507172,-3.2116499982945683)"><path d="M9.18 15.89L3.16 9.32L3.16 15.53C3.16 15.68 3.05 15.81 2.90 15.81L1.26 15.81C1.11 15.81 0.98 15.68 0.98 15.53L0.98 3.70L7 10.26L7 4.06C7 3.91 7.13 3.78 7.27 3.78L8.92 3.78C9.06 3.78 9.18 3.91 9.18 4.06ZM16.67 15.82C13.36 15.82 10.65 13.12 10.65 9.80C10.65 6.48 13.36 3.78 16.67 3.78C19.99 3.78 22.69 6.48 22.69 9.80C22.69 13.12 19.99 15.82 16.67 15.82ZM16.67 5.96C14.56 5.96 12.84 7.69 12.84 9.80C12.84 11.91 14.56 13.62 16.67 13.62C18.79 13.62 20.50 11.91 20.50 9.80C20.50 7.69 18.79 5.96 16.67 5.96ZM32.90 15.82L28.32 11.24L23.74 15.82L23.74 4.07C23.74 3.92 23.87 3.79 24.01 3.79L25.63 3.79C25.79 3.79 25.90 3.92 25.90 4.07L25.90 10.61L28.32 8.19L30.74 10.61L30.74 4.07C30.74 3.92 30.87 3.79 31.02 3.79L32.63 3.79C32.79 3.79 32.90 3.92 32.90 4.07ZM41.02 3.79L45.60 8.37L50.18 3.79L50.18 15.54C50.18 15.69 50.06 15.82 49.91 15.82L48.30 15.82C48.15 15.82 48.02 15.69 48.02 15.54L48.02 8.99L45.60 11.41L43.18 8.99L43.18 15.54C43.18 15.69 43.06 15.82 42.91 15.82L41.29 15.82C41.15 15.82 41.02 15.69 41.02 15.54ZM60.20 15.54C60.20 15.69 60.07 15.82 59.93 15.82L52.28 15.82C52.12 15.82 52.00 15.69 52.00 15.54L52.00 4.06C52.00 3.91 52.12 3.78 52.28 3.78L59.65 3.78C59.81 3.78 59.93 3.91 59.93 4.06L59.93 5.70C59.93 5.85 59.81 5.96 59.65 5.96L54.18 5.96L54.18 8.71L59.37 8.71C59.53 8.71 59.65 8.82 59.65 8.97L59.65 10.61C59.65 10.77 59.53 10.89 59.37 10.89L54.18 10.89L54.18 13.62L59.93 13.62C60.07 13.62 60.20 13.75 60.20 13.90ZM69.66 12.28C69.66 12.38 69.65 13.22 69.12 14.07C68.63 14.88 67.62 15.83 65.56 15.83C63.94 15.83 62.66 15.15 61.98 13.93C61.66 13.34 61.53 12.77 61.49 12.40C61.49 12.38 61.47 12.35 61.47 12.32C61.47 12.18 61.59 12.05 61.73 12.04L63.45 12.04C63.56 12.05 63.64 12.12 63.67 12.24L63.67 12.25C63.67 12.26 63.69 12.28 63.69 12.29C63.71 12.46 63.78 12.70 63.92 12.91C64.22 13.40 64.76 13.65 65.56 13.65C66.42 13.65 66.96 13.41 67.26 12.94C67.45 12.61 67.48 12.26 67.48 12.26C67.48 11.87 67.38 11.41 66.65 11.12C66.12 10.89 65.56 10.88 65.56 10.88C65.46 10.88 64.57 10.86 63.64 10.50C62.23 9.93 61.46 8.81 61.46 7.34C61.46 7.20 61.49 5.89 62.51 4.87C63.24 4.13 64.27 3.75 65.56 3.75C66.39 3.75 67.58 3.93 68.49 4.86C69.37 5.75 69.59 6.89 69.65 7.45L69.65 7.48C69.65 7.64 69.54 7.77 69.38 7.77L67.69 7.77C67.58 7.76 67.48 7.66 67.45 7.55L67.45 7.50C67.41 7.31 67.34 7.03 67.20 6.75C67.00 6.40 66.63 5.94 65.56 5.94C64.88 5.94 64.37 6.09 64.05 6.41C63.67 6.79 63.64 7.34 63.64 7.34C63.64 7.73 63.74 8.18 64.47 8.47C65.00 8.68 65.56 8.69 65.56 8.69C65.66 8.69 66.56 8.71 67.48 9.09C68.89 9.67 69.66 10.81 69.66 12.28ZM78.99 12.28C78.99 12.38 78.97 13.22 78.44 14.07C77.95 14.88 76.94 15.83 74.89 15.83C73.26 15.83 71.99 15.15 71.30 13.93C70.98 13.34 70.85 12.77 70.81 12.40C70.81 12.38 70.80 12.35 70.80 12.32C70.80 12.18 70.91 12.05 71.05 12.04L72.77 12.04C72.88 12.05 72.97 12.12 73.00 12.24L73.00 12.25C73.00 12.26 73.01 12.28 73.01 12.29C73.04 12.46 73.11 12.70 73.25 12.91C73.54 13.40 74.09 13.65 74.89 13.65C75.74 13.65 76.29 13.41 76.58 12.94C76.78 12.61 76.80 12.26 76.80 12.26C76.80 11.87 76.71 11.41 75.98 11.12C75.45 10.89 74.89 10.88 74.89 10.88C74.79 10.88 73.89 10.86 72.97 10.50C71.55 9.93 70.78 8.81 70.78 7.34C70.78 7.20 70.81 5.89 71.83 4.87C72.56 4.13 73.60 3.75 74.89 3.75C75.71 3.75 76.90 3.93 77.81 4.86C78.69 5.75 78.92 6.89 78.97 7.45L78.97 7.48C78.97 7.64 78.86 7.77 78.71 7.77L77.01 7.77C76.90 7.76 76.80 7.66 76.78 7.55L76.78 7.50C76.73 7.31 76.66 7.03 76.52 6.75C76.33 6.40 75.95 5.94 74.89 5.94C74.20 5.94 73.70 6.09 73.37 6.41C73.00 6.79 72.97 7.34 72.97 7.34C72.97 7.73 73.07 8.18 73.79 8.47C74.33 8.68 74.89 8.69 74.89 8.69C74.98 8.69 75.88 8.71 76.80 9.09C78.22 9.67 78.99 10.81 78.99 12.28ZM88.24 11.16C88.24 11.00 88.12 10.89 87.96 10.89L87.04 10.89L85.33 4.05L85.32 3.98C85.27 3.88 85.18 3.81 85.06 3.81L83.23 3.81C83.12 3.81 83.02 3.88 82.98 3.98L82.96 4.06L80.12 15.41C80.12 15.43 80.12 15.44 80.11 15.44L80.11 15.50C80.11 15.67 80.23 15.79 80.37 15.79L82.07 15.79C82.18 15.79 82.29 15.71 82.32 15.60C82.32 15.58 82.33 15.57 82.33 15.57L82.95 13.06L85.34 13.06L85.96 15.55L85.97 15.60C86.02 15.71 86.11 15.79 86.23 15.79L87.92 15.79C88.07 15.79 88.19 15.67 88.19 15.50L88.19 15.47L88.17 15.40L87.58 13.06L87.96 13.06C88.12 13.06 88.24 12.95 88.24 12.80ZM83.50 10.89L84.15 8.30L84.80 10.89ZM99.36 8.79C99.32 8.74 99.26 8.71 99.19 8.71L95.35 8.71C95.20 8.71 95.09 8.83 95.09 8.99L95.09 10.63C95.09 10.78 95.20 10.89 95.35 10.89L97.27 10.89L97.27 12.95C95.61 14.11 93.30 13.76 92.05 12.12C90.76 10.44 91.08 8.04 92.76 6.76C94.09 5.75 95.87 5.74 97.19 6.61C97.29 6.66 97.41 6.66 97.50 6.59L98.85 5.56C98.98 5.46 98.99 5.29 98.90 5.17C98.90 5.15 98.88 5.14 98.87 5.12L98.83 5.10C96.73 3.42 93.67 3.32 91.45 5.03C88.80 7.04 88.30 10.82 90.31 13.45C91.97 15.62 94.84 16.35 97.27 15.41C97.79 15.20 98.28 14.94 98.74 14.59C98.97 14.41 99.18 14.22 99.37 14.03L99.37 14.01C99.43 13.97 99.46 13.90 99.46 13.82L99.46 8.99C99.46 8.90 99.43 8.85 99.36 8.79ZM109.34 15.54C109.34 15.69 109.21 15.82 109.07 15.82L101.42 15.82C101.26 15.82 101.14 15.69 101.14 15.54L101.14 4.06C101.14 3.91 101.26 3.78 101.42 3.78L108.79 3.78C108.95 3.78 109.07 3.91 109.07 4.06L109.07 5.70C109.07 5.85 108.95 5.96 108.79 5.96L103.32 5.96L103.32 8.71L108.51 8.71C108.67 8.71 108.79 8.82 108.79 8.97L108.79 10.61C108.79 10.77 108.67 10.89 108.51 10.89L103.32 10.89L103.32 13.62L109.07 13.62C109.21 13.62 109.34 13.75 109.34 13.90Z"></path></g><defs data-v-423bf9ae=""><linearGradient data-v-423bf9ae="" gradientTransform="rotate(25)" id="34d27148-8a97-4245-a553-5c2350e8d3f5" x1="0%" y1="0%" x2="100%" y2="0%"><stop data-v-423bf9ae="" offset="0%" style="stop-color: rgb(21, 85, 153); stop-opacity: 1;"></stop><stop data-v-423bf9ae="" offset="100%" style="stop-color: rgb(19, 176, 160); stop-opacity: 1;"></stop></linearGradient></defs><g data-v-423bf9ae="" id="c133c803-56cc-49a6-81d7-9701fd4fa3c9" transform="matrix(1.231190047680059,0,0,1.231190047680059,-9.682348034162928,-16.05170880576079)" stroke="none" fill="url(#34d27148-8a97-4245-a553-5c2350e8d3f5)"><path d="M73.7 86.3c-.2 0-.3 0-.5-.1L51.7 74.1h-5.2c-.6 0-1-.4-1-1s.4-1 1-1H52c.2 0 .3 0 .5.1l20.2 11.4V73.1c0-.6.4-1 1-1h7.5c4.1 0 7.5-3.4 7.5-7.5V29.7c0-.6.4-1 1-1s1 .4 1 1v34.9c0 5.2-4.3 9.5-9.5 9.5h-6.5v11.2c0 .4-.2.7-.5.9-.1 0-.3.1-.5.1z"></path><path d="M25.2 79.2c-.2 0-.3 0-.5-.1-.3-.2-.5-.5-.5-.9V67h-6.5c-5.2 0-9.5-4.3-9.5-9.5V22.7c0-5.2 4.3-9.5 9.5-9.5h53.8c5.2 0 9.5 4.3 9.5 9.5v34.9c0 5.2-4.3 9.5-9.5 9.5H47.2l-21.5 12c-.1.1-.3.1-.5.1zm-7.5-64c-4.1 0-7.5 3.4-7.5 7.5v34.9c0 4.1 3.4 7.5 7.5 7.5h7.5c.6 0 1 .4 1 1v10.5l20.2-11.4c.1-.1.3-.1.5-.1h24.6c4.1 0 7.5-3.4 7.5-7.5V22.7c0-4.1-3.4-7.5-7.5-7.5H17.7z"></path><circle cx="26.9" cy="42.3" r="3.9"></circle><circle cx="44.6" cy="42.3" r="3.9"></circle><circle cx="62.7" cy="42.3" r="3.9"></circle></g><!----></svg>